HIERARCHY
ROOT Joint1
{
	OFFSET 0.000000 0.000000 0.000000
	CHANNELS 6 Xposition Yposition Zposition Xrotation Yrotation Zrotation
	JOINT Joint2
	{
		OFFSET -0.000000 0.000000 1.456275
		CHANNELS 6 Xposition Yposition Zposition Xrotation Yrotation Zrotation
		JOINT Joint3
		{
			OFFSET -0.000000 0.000002 1.471446
			CHANNELS 6 Xposition Yposition Zposition Xrotation Yrotation Zrotation
			JOINT Joint4
			{
				OFFSET 0.625745 0.000000 0.917755
				CHANNELS 6 Xposition Yposition Zposition Xrotation Yrotation Zrotation
				JOINT Joint5
				{
					OFFSET -0.629534 0.000001 0.940221
					CHANNELS 6 Xposition Yposition Zposition Xrotation Yrotation Zrotation
					JOINT Joint6
					{
						OFFSET -0.000001 0.113772 1.960660
						CHANNELS 6 Xposition Yposition Zposition Xrotation Yrotation Zrotation
						JOINT Joint7
						{
							OFFSET -0.669733 -0.113771 0.388340
							CHANNELS 6 Xposition Yposition Zposition Xrotation Yrotation Zrotation
							End Site
							{
								OFFSET 0.005509 0.005509 0.438980
							}
						}
					}
				}
			}
		}
	}
}
MOTION
Frames: 17
Frame Time: 0.041667
0.000000 0.000000 0.000000 -0.000000 1.019410 52.226850 -0.000000 0.000000 1.456275 0.000013 -68.954031 0.000002 -0.000000 0.000002 1.471446 0.000005 -1.133463 -40.634086 0.625745 0.000001 0.917755 -0.000020 88.277729 0.000004 -0.629534 0.000001 0.940221 -0.000001 1.709737 78.634923 -0.000001 0.113772 1.960660 -88.303882 127.919608 0.000008 -0.669733 -0.113770 0.388340 -0.479703 3.540812 122.163343 
0.000000 0.000000 0.000000 -0.000000 1.019410 53.409678 -0.000000 0.000000 1.456275 -0.000004 -69.497045 -0.000009 -0.000000 0.000002 1.471445 -0.000000 -1.133464 -41.553648 0.625745 0.000001 0.917755 0.000005 87.219002 0.000046 -0.629534 0.000001 0.940221 -0.000001 1.709738 80.416209 -0.000001 0.113772 1.960660 -88.303875 128.778900 0.000005 -0.669733 -0.113771 0.388340 -0.474684 3.539657 121.873292 
0.000000 0.000000 0.000000 -0.000000 1.019410 55.069770 -0.000000 0.000000 1.456275 0.000003 -70.259158 -0.000002 -0.000000 0.000002 1.471446 -0.000002 -1.133463 -42.844254 0.625745 0.000001 0.917755 -0.000020 85.733095 -0.000010 -0.629533 0.000001 0.940221 0.000000 1.709737 82.916229 -0.000001 0.113772 1.960660 -88.303875 129.984934 0.000002 -0.669733 -0.113771 0.388341 -0.467648 3.537993 121.466199 
0.000000 0.000000 0.000000 -0.000000 1.019410 56.747790 -0.000000 0.000000 1.456275 -0.000005 -71.029507 0.000001 -0.000000 0.000002 1.471445 0.000002 -1.133466 -44.148796 0.625745 0.000000 0.917755 -0.000015 84.231122 -0.000003 -0.629534 0.000001 0.940221 -0.000001 1.709736 85.443255 -0.000001 0.113772 1.960661 -88.303882 131.203972 -0.000003 -0.669733 -0.113771 0.388340 -0.460548 3.536259 121.054721 
0.000000 0.000000 0.000000 -0.000000 1.019410 57.974454 -0.000000 -0.000000 1.456275 -0.000000 -71.592643 0.000006 -0.000000 0.000002 1.471446 -0.000002 -1.133462 -45.102437 0.625745 0.000000 0.917755 -0.000012 83.133163 -0.000024 -0.629533 0.000001 0.940221 0.000001 1.709739 87.290542 -0.000001 0.113772 1.960661 -88.303882 132.095121 -0.000002 -0.669733 -0.113771 0.388340 -0.455362 3.534962 120.753906 
0.000000 0.000000 0.000000 -0.000000 1.019410 58.960310 -0.000000 0.000000 1.456275 -0.000000 -72.045232 0.000001 -0.000000 0.000002 1.471446 -0.000000 -1.133462 -45.868876 0.625745 0.000000 0.917755 0.000002 82.250736 -0.000015 -0.629534 0.000001 0.940221 0.000005 1.709738 88.775213 -0.000000 0.113772 1.960660 -88.303882 132.811335 0.000004 -0.669733 -0.113771 0.388340 -0.451206 3.533899 120.512158 
0.000000 0.000000 0.000000 -0.000000 1.019410 60.085905 -0.000000 0.000000 1.456275 -0.000003 -72.561963 -0.000000 -0.000000 0.000002 1.471446 -0.000005 -1.133467 -46.743947 0.625745 0.000000 0.917755 0.000002 81.243242 0.000012 -0.629534 0.000001 0.940221 0.000003 1.709734 90.470302 -0.000001 0.113771 1.960660 -88.303875 133.629045 0.000003 -0.669733 -0.113772 0.388340 -0.446460 3.532662 120.236137 
0.000000 0.000000 0.000000 -0.000000 1.019410 61.624951 -0.000000 0.000000 1.456275 -0.000000 -73.268525 0.000006 -0.000000 0.000002 1.471446 -0.000004 -1.133463 -47.940439 0.625745 0.000000 0.917755 0.000001 79.865675 0.000015 -0.629534 0.000001 0.940221 -0.000002 1.709736 92.788031 -0.000001 0.113772 1.960661 -88.303882 134.747147 0.000002 -0.669733 -0.113771 0.388339 -0.439986 3.530939 119.858728 
0.000000 0.000000 0.000000 -0.000000 1.019410 63.424023 -0.000000 0.000000 1.456275 0.000004 -74.094439 -0.000003 -0.000000 0.000002 1.471445 -0.000001 -1.133463 -49.339084 0.625745 0.000000 0.917755 -0.000003 78.255356 0.000015 -0.629534 0.000001 0.940222 -0.000003 1.709737 95.497349 -0.000001 0.113771 1.960660 -88.303882 136.054117 0.000004 -0.669733 -0.113771 0.388340 -0.432426 3.528863 119.417579 
0.000000 0.000000 0.000000 -0.000000 1.019410 65.222993 -0.000000 0.000000 1.456275 -0.000002 -74.920311 -0.000005 -0.000000 0.000002 1.471446 -0.000001 -1.133463 -50.737650 0.625745 0.000000 0.917755 0.000005 76.645139 -0.000003 -0.629533 0.000001 0.940221 0.000001 1.709740 98.206502 -0.000001 0.113772 1.960661 -88.303882 137.361019 0.000011 -0.669733 -0.113772 0.388340 -0.424888 3.526737 118.976431 
0.000000 0.000000 0.000000 -0.000000 1.019410 66.762142 -0.000000 0.000000 1.456275 -0.000005 -75.626901 -0.000004 -0.000000 0.000002 1.471446 -0.000003 -1.133464 -51.934235 0.625745 0.000000 0.917755 -0.000002 75.267476 0.000007 -0.629533 0.000001 0.940221 0.000000 1.709739 100.524395 -0.000001 0.113772 1.960660 -88.303882 138.479189 0.000002 -0.669733 -0.113771 0.388339 -0.418449 3.524864 118.599009 
0.000000 0.000000 0.000000 -0.000000 1.019410 67.888378 -0.000000 -0.000000 1.456275 0.000006 -76.143932 -0.000002 -0.000001 0.000002 1.471446 -0.000003 -1.133464 -52.809803 0.625745 0.000000 0.917755 -0.000009 74.259401 0.000000 -0.629534 0.000001 0.940221 -0.000002 1.709735 102.220461 -0.000001 0.113772 1.960660 -88.303882 139.297378 0.000002 -0.669733 -0.113771 0.388340 -0.413751 3.523472 118.322837 
0.000000 0.000000 0.000000 -0.000000 1.019410 68.874610 -0.000000 0.000000 1.456275 0.000006 -76.596692 -0.000003 -0.000000 0.000002 1.471446 -0.000002 -1.133463 -53.576537 0.625745 0.000000 0.917755 -0.000008 73.376640 0.000011 -0.629533 0.000001 0.940221 -0.000002 1.709737 103.705685 -0.000001 0.113771 1.960660 -88.303875 140.013851 0.000007 -0.669734 -0.113771 0.388340 -0.409637 3.522233 118.080993 
0.000000 0.000000 0.000000 -0.000000 1.019410 70.100253 -0.000000 0.000000 1.456275 -0.000004 -77.159363 0.000009 -0.000000 0.000002 1.471446 -0.000004 -1.133464 -54.529382 0.625745 0.000000 0.917755 -0.000016 72.279589 0.000017 -0.629533 0.000001 0.940221 0.000004 1.709740 105.551442 -0.000002 0.113772 1.960660 -88.303875 140.904262 0.000000 -0.669734 -0.113771 0.388341 -0.404533 3.520669 117.780451 
0.000000 0.000000 0.000000 -0.000000 1.019410 71.776081 -0.000000 0.000000 1.456275 0.000007 -77.928702 -0.000009 -0.000000 0.000002 1.471446 -0.000003 -1.133464 -55.832210 0.625745 0.000000 0.917755 0.000009 70.779604 0.000003 -0.629534 0.000001 0.940220 -0.000002 1.709739 108.075142 -0.000001 0.113772 1.960661 -88.303875 142.121716 0.000005 -0.669733 -0.113771 0.388340 -0.397569 3.518490 117.369506 
0.000000 0.000000 0.000000 -0.000000 1.019410 73.438372 -0.000000 0.000000 1.456275 -0.000001 -78.691825 -0.000010 -0.000000 0.000002 1.471446 -0.000003 -1.133464 -57.124519 0.625745 0.000000 0.917755 0.000001 69.291709 0.000006 -0.629534 0.000001 0.940221 -0.000002 1.709735 110.578488 -0.000001 0.113771 1.960660 -88.303882 143.329334 0.000003 -0.669733 -0.113771 0.388340 -0.390675 3.516274 116.961894 
0.000000 0.000000 0.000000 -0.000000 1.019410 74.630936 -0.000000 0.000000 1.456275 0.000005 -79.239306 0.000011 -0.000000 0.000002 1.471446 -0.000000 -1.133465 -58.051642 0.625745 0.000000 0.917755 -0.000009 68.224267 -0.000001 -0.629534 0.000001 0.940221 0.000001 1.709740 112.374432 -0.000001 0.113772 1.960661 -88.303882 144.195716 0.000004 -0.669734 -0.113771 0.388340 -0.385741 3.514657 116.669466 
